<svg width="8" height="8" viewBox="0 0 8 8" fill="none" xmlns="http://www.w3.org/2000/svg">
<path d="M4 2C4.55225 2 5 1.55228 5 1C5 0.447719 4.55225 0 4 0C3.44775 0 3 0.447719 3 1C3 1.55228 3.44775 2 4 2Z" fill="#6B6C7E"/>
<path d="M5 3.99219C5 4.54447 4.55225 4.99219 4 4.99219C3.44775 4.99219 3 4.54447 3 3.99219C3 3.43991 3.44775 2.99219 4 2.99219C4.55225 2.99219 5 3.43991 5 3.99219Z" fill="#6B6C7E"/>
<path d="M5 7C5 7.55228 4.55225 8 4 8C3.44775 8 3 7.55228 3 7C3 6.44772 3.44775 6 4 6C4.55225 6 5 6.44772 5 7Z" fill="#6B6C7E"/>
</svg>
